<svg xmlns="http://www.w3.org/2000/svg" id="_&#x56FE;&#x5C42;_1" data-name="&#x56FE;&#x5C42; 1" viewBox="0 0 100 100"><path d="M78.3,18.58c0-.74-.59-1.34-1.32-1.34-.19,0-.38.04-.56.12-8.4,3.91-18.28,2.74-25.54-3.03-.5-.44-1.26-.44-1.76,0-7.28,5.69-17.13,6.86-25.54,3.03-.67-.3-1.46,0-1.76.67-.08.18-.12.37-.12.56,0,.28.09,27.78,0,36.89-.05,4.87,11.31,20.67,27.62,30.35.41.24.92.24,1.33,0,16.34-9.68,27.7-25.48,27.64-30.35,0-8.11-.04-16.23-.03-24.34,0-4.18.03-8.36.03-12.54ZM24.37,55.5c.04-4.36.05-12.88.04-20.65h8.47c.05-1.22.43-3.24,1.27-4.35.58-.74,1.59-1.43,3.08-1.43,1.17,0,2.07.48,2.6,1.06,1.06,1.17,1.06,3.03,1.06,3.4,0,2.28-.96,4.04-1.91,5.52-1.7,2.71-4.09,5.63-7.28,8.97l-7.32,7.66c0-.05-.03-.13-.03-.18ZM31.89,22.13c-1.79.66-3.32,1.63-4.58,2.9-1.06,1.07-2.14,2.67-2.91,4.68,0-3.85-.02-7.16-.03-9.14,2.45.9,4.98,1.39,7.52,1.57ZM75.63,55.48c0,2.93-9.33,17.67-25.63,27.63-14.04-8.55-22.87-20.6-25.07-25.7h24.32l-1.1,6.85c2.87,1.81,6.58,3.19,11.95,3.19,3.4,0,7.75-.58,11.04-3.98,1.7-1.75,3.4-4.62,3.4-8.87s-1.65-6.8-3.24-8.39c-1.65-1.7-4.62-3.5-9.34-3.5-.48,0-1.54.05-2.87.27l.64-3.93h12.27v-7.81h-18.43l-2.97,18.38h-11.02l5.95-5.52c3.19-2.97,5.26-6.05,5.26-10.51s-2.02-7.27-3.45-8.71c-1.27-1.27-3.52-2.83-7.07-3.42,3.46-.83,6.78-2.3,9.74-4.44,7.42,5.37,17.03,6.7,25.63,3.55,0,6.52-.07,27.24,0,34.92ZM51.15,50.01c1.74-.76,3.65-1.2,5.87-1.2,1.17,0,4.46.05,6.37,1.75.8.69,1.7,1.97,1.7,3.82,0,1.49-.58,2.76-1.38,3.61-1.06,1.11-2.76,1.75-4.62,1.75-1.75,0-3.72-.48-5.31-1.22-.41-.19-1.43-.7-2.63-1.56v-6.95Z" fill="#111"></path></svg>