<svg xmlns="http://www.w3.org/2000/svg" id="_&#x56FE;&#x5C42;_1" data-name="&#x56FE;&#x5C42; 1" viewBox="0 0 100 100"><path d="M79.85,40.15l-1.88,1.81c-.52.5-.52,1.31,0,1.81.26.25.6.38.94.38s.68-.12.94-.38l1.88-1.81c.52-.5.52-1.31,0-1.81-.52-.5-1.36-.5-1.88,0h0Z" fill="#111"></path><path d="M77.98,47.4l-4.68-4.52-.03-.03-5.63-5.41-5.6-5.41-.03-.03-5.63-5.41-4.71-4.52c-.25-.25-.57-.38-.92-.38s-.7.13-.95.38l-15.02,14.45-1.87,1.8c-2.59,2.53-2.59,6.58,0,9.05l3.73,3.64c.28.25.41.57.41.92s-.13.66-.41.92l-1.83,1.77-16.1,13.89c-.13.13-.25.22-.38.35-3.1,3-3.1,7.88,0,10.85,1.52,1.46,3.51,2.25,5.63,2.25s4.14-.79,5.66-2.25c.13-.13.22-.25.35-.38l14.23-15.66,1.87-1.8c.51-.47,1.36-.47,1.87,0l3.73,3.64c1.27,1.2,2.94,1.87,4.71,1.87s3.45-.66,4.71-1.87l1.87-1.8,15.02-14.49c.54-.51.54-1.3,0-1.8ZM23.99,76.09c-.54.51-1.39.51-1.9,0-.51-.54-.51-1.33,0-1.83.51-.47,1.36-.47,1.9,0,.51.51.51,1.3,0,1.83ZM34.77,65.46l-7.02,6.99c-.28.25-.63.38-.95.38-.35,0-.66-.13-.92-.35-.54-.51-.57-1.3-.03-1.83l7.05-6.96c.51-.51,1.36-.51,1.87-.03.54.51.54,1.33,0,1.8ZM62.04,60.97l-24.45-23.53,13.16-12.65,2.82,2.69-6.58,6.36c-.51.51-.51,1.33,0,1.8.28.25.6.38.95.38.32,0,.7-.13.95-.38l6.55-6.33,3.76,3.61-6.58,6.36c-.51.47-.51,1.3,0,1.8.25.22.6.35.95.35s.66-.13.92-.35l6.61-6.33,3.73,3.57-6.58,6.36c-.51.51-.51,1.3,0,1.8.28.25.6.38.95.38s.7-.13.95-.38l6.55-6.33,3.76,3.64-6.55,6.33c-.54.47-.54,1.3,0,1.8.25.25.57.38.92.38s.66-.13.95-.38l6.58-6.33,2.82,2.72-13.13,12.65Z" fill="#111"></path><path d="M62.01,27.86c.34,0,.68-.13.94-.37l3.75-3.62c.52-.5.52-1.31,0-1.81-.52-.5-1.36-.5-1.88,0l-3.76,3.62c-.52.5-.52,1.31,0,1.81.26.25.6.37.94.37h0Z" fill="#111"></path><path d="M56.38,22.43c.34,0,.68-.13.94-.38l1.88-1.81c.52-.5.52-1.31,0-1.81-.52-.5-1.36-.5-1.88,0l-1.88,1.81c-.52.5-.52,1.31,0,1.81.26.25.6.38.94.38h0Z" fill="#111"></path><path d="M66.71,32.91c.26.25.6.38.94.38s.68-.12.94-.38l7.51-7.24c.52-.5.52-1.31,0-1.81-.52-.5-1.36-.5-1.88,0l-7.51,7.24c-.52.5-.52,1.31,0,1.81h0Z" fill="#111"></path><path d="M77.98,31.11l-5.64,5.43c-.52.5-.52,1.31,0,1.81.26.25.6.38.94.38s.68-.13.94-.38l5.64-5.43c.52-.5.52-1.31,0-1.81-.52-.5-1.36-.5-1.88,0h0Z" fill="#111"></path><path d="M83.61,27.48c-.52-.5-1.36-.5-1.88,0-.52.5-.52,1.31,0,1.81.52.5,1.36.5,1.88,0,.52-.5.52-1.31,0-1.81h0Z" fill="#111"></path><path d="M79.86,22.05c.52-.5.52-1.31,0-1.81-.52-.5-1.36-.5-1.88,0-.52.5-.52,1.31,0,1.81.52.5,1.36.5,1.88,0h0Z" fill="#111"></path><path d="M70.46,20.25c.52-.5.52-1.31,0-1.81-.52-.5-1.36-.5-1.88,0-.52.5-.52,1.31,0,1.81.52.5,1.36.5,1.88,0h0Z" fill="#111"></path></svg>