<svg xmlns="http://www.w3.org/2000/svg" id="_&#x56FE;&#x5C42;_1" data-name="&#x56FE;&#x5C42; 1" viewBox="0 0 100 100"><path d="M32.98,23.72c-1.26,2.76-.05,6.04,2.7,7.31l4.21,1.94,2.96-10.74-2.61-1.21c-2.74-1.27-6-.06-7.26,2.7Z" fill="none"></path><path d="M74.85,30.94l-9.1-4.21c-.46-.21-1-.01-1.21.45-.21.47,0,1.01.45,1.23l8.16,3.76c-1.1,1.35-3.07,1.84-4.74,1.08-.41-.19-.89-.05-1.14.32l-10.12,15.24c-.21.32-.21.72,0,1.03,1.86,2.74,3,5.94,3.3,9.24.32,3.4-.26,6.85-1.69,9.97-2.59,5.69-7.76,9.8-13.86,11.03l-2.67-1.23c-.46-.21-1-.01-1.21.45-.21.47-.01,1.01.45,1.22l2.95,1.37c.14.06.2.23.14.36-.36.78-1.28,1.13-2.06.77l-19.06-8.81c-.78-.36-1.13-1.29-.77-2.07.06-.14.22-.2.35-.14.01,0,.01,0,.01,0h.03l14.53,6.72c.45.21.99.01,1.2-.45.21-.46.01-1.02-.45-1.22l-14.28-6.6c-3.04-5.47-3.32-12.09-.73-17.78,1.43-3.12,3.64-5.82,6.41-7.79,2.69-1.92,5.84-3.13,9.12-3.5.36-.04.67-.31.77-.67l5.89-21.31,15.67,7.24c.46.21,1,.01,1.21-.45.21-.46,0-1.01-.45-1.22l-19.42-8.98c-5.5-2.53-12.02-.11-14.53,5.41-2.52,5.53-.1,12.08,5.4,14.62l5,2.31-.36,1.3c-3.36.49-6.59,1.77-9.35,3.75-3.04,2.16-5.46,5.11-7.02,8.52-2.68,5.9-2.55,12.7.29,18.47-.41.2-.74.55-.95.99-.77,1.7-.03,3.72,1.67,4.51l19.06,8.8c1.69.79,3.7.04,4.48-1.66.2-.45.24-.94.13-1.38,6.19-1.6,11.39-5.94,14.07-11.82,1.56-3.41,2.2-7.19,1.85-10.91-.32-3.4-1.44-6.7-3.27-9.59l9.39-14.12c1.18.36,2.45.34,3.65-.09,1.47-.52,2.62-1.56,3.25-2.95.22-.47.01-1.01-.44-1.22ZM39.88,32.96l-4.2-1.94c-2.75-1.27-3.96-4.55-2.7-7.31,1.26-2.76,4.51-3.97,7.26-2.7l2.61,1.21-2.97,10.74ZM34.15,34.36c-4.57-2.12-6.59-7.58-4.49-12.18,2.1-4.6,7.53-6.62,12.1-4.51l2.08.96-.5,1.79-2.34-1.08c-3.66-1.69-8-.07-9.68,3.61s-.07,8.05,3.59,9.74l4.47,2.07-.49,1.79-4.74-2.19Z" fill="#111"></path><path d="M61.86,38.42c.15-.22.19-.5.12-.76-.07-.26-.26-.47-.5-.58-1.19-.55-2.02-.49-2.69-.45-.58.04-1.04.07-1.81-.29-.76-.35-1-.69-1.34-1.16-.39-.54-.87-1.21-2.06-1.76-1.2-.55-2.01-.48-2.66-.43-.58.05-.99.09-1.75-.27-.77-.36-1.05-.73-1.41-1.2-.41-.54-.91-1.22-2.1-1.77-.24-.11-.52-.11-.76,0-.24.11-.42.33-.5.59l-3,10.86c-.3,1.09-1.21,1.87-2.33,2-2.97.34-5.83,1.44-8.27,3.17-.06.04-.1.1-.14.16-.97.6-1.81,1.4-2.49,2.35-.15.05-.29.13-.41.25-1.13,1.29-2.06,2.74-2.77,4.3-2.24,4.89-2.15,10.47.23,15.31.09.19.25.34.44.42h0l19.16,8.85c.19.09.4.11.61.06,5.18-1.34,9.44-4.91,11.67-9.8,1.29-2.83,1.82-5.96,1.53-9.04-.27-2.99-1.31-5.89-2.99-8.38-.63-.93-.63-2.14-.01-3.08l6.23-9.37Z" fill="#111"></path><path d="M76.1,52c-.36-.55-.68-1.05-.98-1.52-.04-.07-.11-.13-.17-.17-.26-.18-.61-.1-.78.16-.29.46-.62.93-1.01,1.5-1.74,2.5-4.34,6.29-4.37,8.47-.02,1.59.61,3.04,1.64,4.1,1.03,1.04,2.45,1.71,4.03,1.73,1.58.02,3.02-.62,4.07-1.65,1.05-1.03,1.72-2.46,1.74-4.05.03-2.18-2.48-6-4.16-8.55Z" fill="#111"></path></svg>