<svg xmlns="http://www.w3.org/2000/svg" id="_&#x56FE;&#x5C42;_1" data-name="&#x56FE;&#x5C42; 1" viewBox="0 0 100 100"><path d="M38.96,63.38c1.91-2.6,2.63-5.12,2.21-7.72-.15-.89-.39-1.78-.62-2.63-.17-.61-.34-1.23-.47-1.84l-.06-.28c-.2-.92-.4-1.88-.34-2.76.21-3.17,1.79-5.45,4.68-6.77,1.03-.47,2.15-.83,3.23-1.19.44-.14.89-.28,1.32-.43,2.52-.87,4.25-2.31,5.29-4.4,1.29-2.62.85-5.26-1.14-6.9-.57-.47-2.55-1.71-3.26-1.96h0c-3.04-1.19-5.83-1.77-8.55-1.77-.63,0-1.27.03-1.89.1-3.69.37-6.48,1.94-8.3,4.67-1.65,2.48-2.58,5.22-2.77,8.16-.12,1.96-.1,3.94-.08,5.86v1.81c.03,3.23-.47,6-1.51,8.47-.31.72-.62,1.5-.8,2.29-.71,2.99-.22,5.4,1.5,7.38,1.16,1.33,2.72,1.87,4.23,2.3.74.22,1.48.32,2.18.32,2.09,0,3.87-.94,5.17-2.71Z" fill="#111"></path><path d="M36.57,24.03c.42,0,.85-.13,1.23-.39.41-.27.72-.62.99-.92.09-.1.18-.21.28-.3.37.27.81.44,1.28.44.52,0,1.04-.18,1.51-.53.2-.15.35-.38.52-.58.46.71,1.19,1.14,2.06,1.14.45,0,.89-.11,1.33-.34.56-.28.99-.67,1.32-1.07.01.1-.02.21,0,.32.28,1.58,1.4,2.59,2.87,2.59.41,0,.83-.08,1.25-.24.68-.26,1.3-.71,1.83-1.26-.08.47-.13.94-.11,1.39.14,2.29,1.6,3.82,3.63,3.82.68,0,1.38-.18,2.09-.53,1.62-.81,2.82-2.13,3.79-4.14l.04-.07.02-.08c.02-.07.05-.15.08-.25.09-.27.2-.6.28-.94.1-.4.16-.84.19-1.31.08-1.28-.28-2.43-1.02-3.22-.66-.7-1.58-1.08-2.6-1.08-.55,0-1.12.11-1.7.32-1.13.42-2.17,1.3-3,2.38.02-.31.01-.61-.03-.91-.22-1.68-1.4-2.8-2.92-2.8-.56,0-1.14.15-1.7.45-.72.38-1.28.97-1.78,1.64-.02-.19-.04-.38-.09-.58-.35-1.21-1.29-1.96-2.44-1.96-.42,0-.84.1-1.26.3-.72.34-1.28.97-1.74,1.69-.45-.62-1.11-1-1.83-1-.55,0-1.09.21-1.55.6-.31.27-.54.57-.74.83-.07.1-.15.19-.22.29l-.13.16-.06.19c-.03.08-.05.18-.07.26-.22-.08-.45-.13-.7-.13-.35,0-.7.08-1.04.25-1.31.63-2.16,2.38-1.85,3.82.23,1.06,1.04,1.77,2.01,1.77Z" fill="#111"></path><path d="M60.88,48.28h-.01c-.62-.61-2.72-1.84-3.2-2.06-.68-.31-1.38-.46-2.1-.46-1.72,0-3.35.89-4.58,2.5-1.42,1.85-1.94,4.03-1.6,6.69.06.47.13.94.19,1.41.16,1.11.33,2.27.36,3.4.1,3.18-1.24,5.6-3.99,7.19-.75.44-1.67.67-2.57.9l-.34.09c-.62.16-1.26.28-1.89.4-.86.16-1.74.33-2.6.6-2.51.77-4.46,2.53-5.94,5.4-1.37,2.63-.98,5.35,1.11,7.65,1.05,1.16,2.22,2.33,3.93,2.78.64.16,1.27.25,1.9.25,1.86,0,3.62-.71,5.39-2.17.62-.52,1.19-1.14,1.7-1.74,1.76-2.04,4.02-3.71,6.92-5.12.57-.28,1.14-.55,1.72-.82,1.7-.82,3.46-1.66,5.13-2.62,2.55-1.47,4.6-3.52,6.09-6.1,1.64-2.82,1.82-6.03.52-9.51-1.16-3.11-3.17-5.94-6.12-8.63Z" fill="#111"></path><path d="M73.7,54.77l.08-.18c.05-.11.1-.21.16-.32.15-.3.32-.64.42-1.04.19-.74.06-1.46-.37-2.02-.34-.44-.86-.69-1.45-.8.45-.74.72-1.56.7-2.36-.02-1.55-1.07-2.63-2.56-2.63-.18,0-.37.01-.56.05-.18.03-.33.1-.5.15.37-.73.6-1.5.62-2.31.03-.97-.28-1.85-.86-2.45-.53-.55-1.28-.86-2.09-.86-.39,0-.8.07-1.21.21-.28.1-.56.22-.82.38.59-1.22.92-2.54.8-3.74-.22-2.19-1.67-3.66-3.61-3.66-.76,0-1.53.22-2.3.66-.43.25-.79.49-1.1.75-.27.23-.53.48-.73.68l-.17.17-.06.06-.05.06c-1.38,1.76-2.02,3.42-2.03,5.22-.01,1.25.37,2.31,1.11,3.06.65.65,1.54,1.01,2.51,1.01.6,0,1.22-.13,1.85-.4.41-.17.81-.42,1.19-.7-.26.71-.39,1.46-.32,2.18.16,1.67,1.33,2.8,2.91,2.8.33,0,.67-.05,1.02-.15.1-.03.19-.1.29-.14-.21.48-.37,1.03-.38,1.66-.01.79.25,1.49.74,1.99.39.39.91.59,1.48.67-.12.25-.26.5-.31.76-.14.77.03,1.48.47,2.01.19.22.43.38.69.52-.05.13-.1.26-.15.39-.15.38-.33.81-.39,1.3-.08.65.09,1.26.49,1.7.38.44.94.67,1.56.67.2,0,.42-.03.63-.08,1.42-.36,2.61-1.89,2.6-3.35,0-.66-.27-1.22-.67-1.61.07-.06.15-.13.21-.19l.15-.15Z" fill="#111"></path></svg>