<svg xmlns="http://www.w3.org/2000/svg" id="_&#x56FE;&#x5C42;_1" data-name="&#x56FE;&#x5C42; 1" viewBox="0 0 100 100"><path d="M83.81,49.7c-.18-.31-.55-.52-.92-.52h-.67c-3,0-5.87,1.44-7.61,3.79l-8.19,9.42v.03c1.5,2.11,1.83,8.53-5.11,8.62h-14.64c-1.9,0-4.52.67-5.59.92-1.35.28-1.31-.55-.37-1.13,1.19-.73,3.85-1.25,5.99-1.25l14.4.21c4.49,0,5.6-4.1,4.43-6.54l-.03-.03c-.92-1.35-2.45-2.23-4.22-2.23h-8.73c.07-.66.17-1.65.25-2.96.56-4.12,1.64-7.37,2.86-9.9,1.43.54,2.76.82,3.98.82,1.42,0,2.7-.37,3.83-1.1,5.29-3.46,4.84-13.84,4.82-14.28-.03-.57-.48-1.02-1.04-1.05-6.2-.35-10.51,1.03-12.79,4.09-3.15,4.21-1.17,9.91-1.08,10.15.06.15.2.24.31.35-.31.64-.62,1.27-.9,1.99-.06-.95-.15-1.93-.27-2.92-.64-5.5-2.03-10.09-4.1-13.69,1.79-3.96,1.87-7.25.17-9.79-3.82-5.73-15.16-5.13-15.64-5.1-.56.03-1.02.49-1.04,1.05-.31,6.77,1.23,11.46,4.58,13.91,1.98,1.45,4.25,1.87,6.21,1.87,1.65,0,3.08-.3,3.96-.53,4.2,7.62,4.25,18.45,3.92,24.03-.12.95-.2,1.98-.27,3.02-2.17-.09-4.24-.7-5.99-1.8-2.66-1.62-6.94-3.85-12.23-5.01-9.42-2.11-15.59,5.96-15.87,6.3-.12.18-.21.43-.21.67v10.79c0,.58.43,1.04,1.01,1.1l3.42.34c4.13.43,8.13,1.47,11.92,3.12l10.49,4.56c2.2.95,4.56,1.44,6.94,1.44,2.2,0,4.37-.4,6.45-1.22l8.35-3.36,1.44-.34c4.31-1.1,7.95-4.16,9.72-8.22l8.16-18.56c.15-.34.12-.73-.09-1.04Z" fill="#111"></path></svg>