<svg xmlns="http://www.w3.org/2000/svg" id="_&#x56FE;&#x5C42;_1" data-name="&#x56FE;&#x5C42; 1" viewBox="0 0 100 100"><polygon points="33.48 29.8 28.44 29.8 28.44 22 42.67 22 42.67 57.42 33.48 57.42 33.48 29.8" fill="#111"></polygon><path d="M68.83,63.41c-2.76,2.71-6.32,4.03-9.77,4.03s-7.01-1.33-9.77-4.03c-3.19-3.13-5.26-8.23-5.26-14.44s2.07-11.36,5.26-14.5c2.76-2.71,6.32-4.03,9.77-4.03s7.01,1.33,9.77,4.03c3.19,3.13,5.26,8.23,5.26,14.5s-2.07,11.31-5.26,14.44M56.25,39.78c-1.91,1.65-3.08,5.95-3.08,9.24,0,2.81,1.01,7.43,3.08,9.24.69.64,1.75,1.12,2.81,1.12s2.13-.48,2.82-1.12c1.96-1.7,3.08-6.16,3.08-9.19s-1.22-7.65-3.08-9.29c-.69-.64-1.75-1.12-2.82-1.12s-2.12.48-2.81,1.12" fill="#111"></path><path d="M78.3,18.58c0-.74-.59-1.34-1.32-1.34-.19,0-.38.04-.56.12-8.4,3.91-18.28,2.74-25.54-3.03-.5-.44-1.26-.44-1.76,0-7.28,5.69-17.13,6.86-25.54,3.03-.67-.3-1.46,0-1.76.67-.08.18-.12.37-.12.56,0,.28.09,27.78,0,36.89-.05,4.87,11.31,20.67,27.62,30.35.41.24.92.24,1.33,0,16.33-9.68,27.7-25.48,27.64-30.35,0-8.11-.04-16.23-.03-24.34,0-4.18.03-8.36.03-12.54M75.63,55.48c0,2.93-9.34,17.67-25.63,27.63-16.35-9.95-25.66-24.69-25.63-27.62.08-7.7.03-28.4,0-34.94,8.6,3.15,18.21,1.82,25.63-3.55,7.42,5.37,17.03,6.7,25.63,3.55,0,6.52-.07,27.24,0,34.92" fill="#111"></path></svg>