<svg xmlns="http://www.w3.org/2000/svg" id="_&#x56FE;&#x5C42;_1" data-name="&#x56FE;&#x5C42; 1" viewBox="0 0 100 100"><path d="M82.73,69.54h-29.72l22.75-22.75v3.47c0,.69.56,1.25,1.24,1.25s1.25-.56,1.25-1.25v-6.47c0-.69-.55-1.25-1.24-1.25h-6.48c-.69,0-1.25.56-1.25,1.25s.56,1.25,1.25,1.25h3.47l-24,23.99-26.12-26.12c-.49-.49-1.28-.49-1.76,0-.49.48-.49,1.27,0,1.76l24.87,24.87h-29.72c-.69,0-1.25.56-1.25,1.24v4.43c0,.69.56,1.25,1.25,1.25h65.46c.69,0,1.24-.56,1.24-1.25v-4.43c0-.68-.55-1.24-1.24-1.24Z" fill="#111"></path><path d="M82.73,81.51H17.27c-.69,0-1.25.56-1.25,1.24s.56,1.25,1.25,1.25h65.46c.69,0,1.24-.56,1.24-1.25s-.56-1.24-1.24-1.24Z" fill="#111"></path><path d="M34.33,33.81h3.63c.22,2.46,1.19,4.79,2.77,6.69l-2.57,2.57c-.42.41-.44,1.09-.03,1.51.41.43,1.09.44,1.51.03,0,0,.02-.02.03-.03l2.57-2.57c1.89,1.59,4.23,2.56,6.68,2.77v3.63c0,.59.48,1.07,1.08,1.07s1.06-.48,1.06-1.07v-3.63c2.46-.21,4.8-1.18,6.69-2.77l2.57,2.57c.42.42,1.1.42,1.51,0,.42-.42.42-1.1,0-1.51l-2.57-2.57c1.59-1.89,2.56-4.23,2.77-6.69h3.63c.59,0,1.07-.48,1.07-1.07s-.48-1.07-1.07-1.07h-3.63c-.21-2.46-1.19-4.79-2.77-6.68l2.57-2.57c.42-.42.42-1.1,0-1.51-.42-.42-1.09-.42-1.51,0l-2.57,2.57c-1.89-1.58-4.23-2.55-6.69-2.77v-3.63c0-.59-.48-1.06-1.06-1.06s-1.08.47-1.08,1.06v3.63c-2.46.22-4.79,1.19-6.68,2.77l-2.57-2.57c-.41-.43-1.09-.44-1.51-.03-.42.41-.44,1.09-.03,1.51,0,0,.02.02.03.03l2.57,2.57c-1.59,1.89-2.56,4.22-2.77,6.68h-3.63c-.59,0-1.07.48-1.07,1.07s.48,1.07,1.07,1.07ZM50.01,24.63c.68,0,1.24.56,1.24,1.25s-.56,1.25-1.24,1.25c-3.39,0-6.13,2.75-6.14,6.14,0,.69-.56,1.25-1.25,1.25s-1.25-.56-1.25-1.25c0-4.76,3.87-8.62,8.63-8.63Z" fill="#111"></path></svg>