<svg xmlns="http://www.w3.org/2000/svg" id="_&#x56FE;&#x5C42;_1" data-name="&#x56FE;&#x5C42; 1" viewBox="0 0 100 100"><path d="M83.83,49.45c-1.06-.41-2.56-.75-4.03-1.09-3.39-.75-6.6-1.51-7.35-3.58v-.08l-.04-.15c-.98-3.09-2.53-5.92-4.64-8.41,0-.04-.04-.04-.04-.08-1.17-1.62,2.15-7.09,4.26-10.33.04-.11.08-.23.15-.34,2-3.09,2.45-4.9,1.51-5.84-1.43-1.43-5.28,1.81-8.33,4.45-3.02,2.56-5.65,4.83-7.88,4.83-.23,0-.45-.04-.72-.08,0-.04-.04-.04-.08-.04-1.32-.41-2.68-.72-4.03-.9h-.11c-2.68-.6-3.69-3.62-4.56-6.3-.57-1.66-1.24-3.69-2.04-3.69-.94,0-1.81,3.43-2.3,5.28-.75,2.9-1.39,5.39-2.98,6.14-.04,0-.08.04-.08.04l-.11.04s-.04.04-.08.04h-.04l-.04.04c-3.54,1.43-6.75,3.77-9.24,6.71,0,0-.04.04-.08.04-2.71,2.75-6.63,1.92-10.1,1.21-2.41-.53-4.71-.98-5.73,0-.11.15-.15.23-.15.34.08,1.28,2.98,3.77,5.09,5.58,3.28,2.86,5.32,4.67,5.32,6.56v.23s0,.04-.04.08c-.26,2.34-3.13,2.45-5.65,2.56-1.24.04-2.53.08-3.39.38-.94.26-.94.64-.94.9,0,1.13,1.92,1.47,4.67,1.88,2.71.38,5.5.75,6.33,2.86,0,.04.04.04.04.08s0,.08.04.11v.08l.04.04v.08c.04.11.08.23.11.34.04.04.04.08.04.08,1.43,4.15,3.96,7.8,7.31,10.63.04,0,.08.04.08.04,2.98,2.98,1.13,6.3-.08,8.52-.6,1.02-1.24,2.19-1.09,2.71.08.19.26.38.6.57,1.09.57,1.77-.08,3.47-2.49,1.55-2.19,3.43-4.86,6.75-4.45.04,0,.08,0,.11.04,1.81.41,3.69.64,5.62.64,7.43,0,14.32-3.35,18.92-9.24.04,0,.08-.04.08-.08,2.45-2.45,5.16-1.58,6.94-1.02,1.88.57,1.92.45,2.15-.08.38-.98-.3-1.81-1.92-3.35-1.39-1.36-3.02-2.9-2.68-5.01v-.11c.04-.08.04-.19.08-.26v-.08c.68-2.34,4-3.28,7.2-4.18,1.43-.41,2.75-.79,3.73-1.24.87-.41,1.09-.72,1.09-.83,0-.08-.19-.38-1.17-.79ZM39.54,56.54c-.45.87-1.81.72-2.07-.23-.26-.98.87-1.81,1.73-1.24.45.3.6.94.34,1.47ZM46.66,66c-1.02,0-1.81-.79-1.81-1.81s.79-1.81,1.81-1.81,1.81.83,1.81,1.81-.83,1.81-1.81,1.81ZM45.72,48.58c-2.26,0-4.11-1.81-4.11-4.07s1.85-4.07,4.11-4.07,4.07,1.85,4.07,4.07-1.85,4.07-4.07,4.07ZM61.59,45c-.49.11-1.02-.19-1.24-.64-.19-.45-.08-.98.3-1.28.34-.3.83-.38,1.24-.19.41.23.68.72.6,1.21-.08.45-.45.83-.9.9Z" fill="#111"></path></svg>