<svg xmlns="http://www.w3.org/2000/svg" id="_&#x56FE;&#x5C42;_1" data-name="&#x56FE;&#x5C42; 1" viewBox="0 0 100 100"><path d="M50,17.64c-18.75,0-34,14.52-34,32.36s15.25,32.36,34,32.36,34-14.52,34-32.36-15.25-32.36-34-32.36ZM27.14,57.33c-2.29.33-4.57.69-6.84,1.11-.31.06-.51.17-.67.31-.14-.43-.24-.86-.35-1.3,4.52-.9,9.03-2.13,14.05-1.24-3.28,3.55-7.32,5.38-11.84,6.94-.3-.58-.6-1.16-.86-1.76.18,0,.39,0,.64-.1,1.93-.68,3.87-1.35,5.75-2.12.61-.25,1.07-.82,1.95-1.52-.95-.18-1.4-.39-1.83-.33ZM38.8,54.32c-3.05-1.28-16.73.76-19.58,2.92-.15-.59-.3-1.18-.42-1.79.38.07.75.14,1.13.15.36,0,.71-.2,1.08-.27,4.58-.86,9.14-1.87,13.75-2.5,2.78-.39,5.66-.18,8.5-.24.05.23.1.46.15.69-5.33,6.37-12.55,9.86-20.67,12.08-.37-.59-.72-1.19-1.05-1.8,4.42-.05,15.16-5.84,17.11-9.24ZM23.64,65.7c3.74-1.13,7.58-2.07,11.19-3.5,4.69-1.86,9.06-4.25,11.71-8.69,1.22-2.04,1.09-2.37-1.43-2.69-4.37-.56-8.68-.21-12.97.71-4.2.91-8.4,1.77-12.59,2.73-.32.07-.57.39-.83.7-.08-.48-.17-.95-.23-1.44.16.08.31.14.47.15.3.03.61-.14.93-.2,6.52-1.15,13.01-2.57,19.58-3.36,4.55-.55,9.22-.22,13.84-.28.05,0,.1.15.06.07-2.4,1.93-4.79,3.85-7.17,5.77-2.1,1.7-4.05,3.6-6.31,5.07-4.45,2.87-9.63,4.2-14.7,5.72-.47.14-.92.33-1.37.51-.29-.41-.56-.83-.83-1.25.24.04.45.03.65-.03ZM18.66,45.39c.8-.2,1.53-.36,2.23-.57,6.31-1.85,12.71-3.41,19.31-3.87,4.33-.3,8.71-.08,13.06-.22,8.44-.27,16.63-2.08,24.8-3.92.11-.02.21-.11.33-.22.27.51.54,1.01.78,1.54-3.51.74-7.02,1.49-10.53,2.21-5.35,1.1-10.68,2.35-16.21,2.3-3.56-.03-7.12-.21-10.68-.21-7.95,0-15.37,2.41-22.82,4.67-.22.07-.39.28-.55.53.06-.75.16-1.49.28-2.22ZM20.42,39.38c1.87-.8,3.75-1.57,5.59-2.41,5.32-2.42,10.69-4.77,15.26-8.42,3.73-3,7.36-6.13,11.78-8.25.1-.05.18-.14.26-.24,2.14.21,4.22.63,6.21,1.22-.3.11-.59.25-.87.39-6.67,3.32-12.73,7.48-18.75,11.74-3.52,2.48-7.32,4.66-11.21,6.59-2.85,1.42-6.04,2.21-9.09,3.26-.23.08-.43.17-.6.27.34-1.46.8-2.87,1.35-4.23.02.03.04.05.06.08ZM57.06,33.91c4.28,1.23,8.61,1.05,12.95.43,2.13-.3,4.25-.71,6.37-1.07.13.19.24.39.37.58-.17,0-.34,0-.49.01-2.63.36-5.26.76-7.88,1.12-5.02.7-10.04,1.01-15.07.07-1.67-.31-1.81-.73-.75-1.96,2.98-3.48,6.36-6.5,10.56-8.64.59-.3,1.14-.66,1.74-1.03.4.2.79.43,1.18.65-.24.09-.47.19-.69.31-3.44,1.97-6.52,4.34-9.04,7.34-1.18,1.41-1.1,1.67.76,2.2ZM62.38,22.97c-6.22,3.21-11.71,7.31-16.51,12.24-.3.31-.52.69-.8,1.06,3.86,1.97,26.67.5,31.97-1.96.4.62.79,1.25,1.15,1.9-.13-.02-.23-.03-.32-.02-.63.1-1.25.23-1.87.36-7.28,1.56-14.63,2.69-22.11,2.6-5.74-.07-11.48-.52-17.19.38-1,.16-2,.26-3.37.44,3.45-2.39,6.75-4.3,9.57-6.71,3.99-3.4,8.3-6.28,12.97-8.74,1.67-.88,3.35-1.77,5.15-2.72.71.25,1.42.52,2.11.82-.21.09-.44.19-.75.35ZM19.36,48.46c3.98-.92,7.91-2.02,11.9-2.83,3.26-.66,6.61-1.46,9.89-1.39,12.66.27,24.81-2.36,36.95-5.2.43-.1.84-.29,1.26-.45.14.32.25.66.38.99-.61.14-1.22.26-1.81.44-8.9,2.78-17.8,5.58-27.26,5.97-4.12.17-8.26-.08-12.38.06-6.64.22-13.01,1.88-19.37,3.55-.26.07-.48.17-.68.29,0-.53.05-1.05.08-1.58.35.1.71.21,1.02.14ZM19.44,51.35c3.28-.83,6.54-1.76,9.82-2.63,4.64-1.23,9.36-1.86,14.19-1.5,5.62.42,11.2-.16,16.61-1.45,6.59-1.57,13.07-3.59,19.58-5.43.12-.03.23-.11.33-.18.19.51.37,1.02.52,1.55-.42.06-.85.13-1.25.25-5.56,1.74-11.04,3.71-16.67,5.18-3.44.9-7.09,1.29-10.66,1.44-4.24.17-8.5-.4-12.74-.25-6.86.24-13.34,2.42-19.92,4-.21.05-.46.08-.59.21-.1.1-.17.22-.25.33-.05-.51-.06-1.02-.08-1.54.35.09.81.11,1.12.03ZM25.51,67.24c4.08-1.3,8.27-2.38,12.17-4.07,2.85-1.23,5.73-2.89,7.85-5.04,4.93-5,10.9-8.16,17.57-10.31,5.44-1.75,10.93-3.35,16.4-5.03.4-.12.79-.3,1.17-.47.23.84.43,1.69.59,2.56-.43.06-.86.18-1.27.31-4.94,1.57-9.84,3.25-14.81,4.71-6.3,1.84-12.17,4.27-17.27,8.46-5.96,4.91-13.3,7.47-20.74,9.7-.68.2-1.35.41-2.03.61-.33-.4-.65-.81-.97-1.23.46-.04.92-.07,1.34-.2ZM26.74,68.81c3.98-1.27,8.01-2.43,11.9-3.89,2.49-.94,5-2.08,7.13-3.59,5.31-3.78,10.79-7.16,17.14-9.15,5.75-1.8,11.49-3.63,17.23-5.47.46-.14.89-.37,1.31-.59.13.94.21,1.9.24,2.86-.21,0-.41.01-.6.06-10.53,3.05-21.05,6.14-30.77,11.18-7.34,3.81-14.87,7.18-22.94,9.38-.36.1-.71.25-1.06.4-.28-.3-.58-.58-.85-.89.42-.09.84-.17,1.25-.3ZM75.97,32.73c-.21,0-.42,0-.62.03-2.26.3-4.52.86-6.78.88-3.11.03-6.25-.23-9.34-.58-1.7-.2-1.83-.76-.87-2.15.26-.37.55-.76.92-1.04,2.19-1.66,4.41-3.29,6.62-4.93.25-.18.5-.36.75-.54.31.18.64.35.94.54-.27.09-.52.2-.73.36-2.15,1.71-4.33,3.4-6.35,5.24-1.51,1.37-1.26,1.87.84,2.34.41.09.84.19,1.26.17,3.17-.14,6.34-.26,9.5-.46,1.01-.07,2-.34,3-.52-4.52-.21-9.02.45-13.42-.7-.07-.16-.14-.32-.21-.47,2.23-1.86,4.45-3.72,6.68-5.58.78.52,1.54,1.07,2.27,1.65-.86.25-1.76,1.29-2.63,1.92.11.25.22.49.33.73,1.74,0,3.48.01,5.22.02.94.97,1.83,1.99,2.63,3.07ZM52.16,19.99c-.38.17-.75.34-1.09.55-2.14,1.33-4.24,2.71-6.34,4.07-3.38,2.19-6.61,4.62-10.16,6.53-4.19,2.26-8.66,4.07-12.97,6.14-.2.1-.37.26-.54.4.34-.71.68-1.42,1.08-2.1h0c.57-.16,1.17-.26,1.7-.51,4.51-2.13,9.12-4.12,13.48-6.5,3.76-2.04,7.54-4.18,10.31-7.51.26-.32.47-.69.71-1.1.55-.03,1.1-.08,1.67-.08.73,0,1.44.06,2.16.1ZM25.74,30.62c3.53-1.74,7.33-3.18,9.05-7,0,0-.02-.02-.02-.03,1.62-.84,3.33-1.54,5.11-2.11-.19.17-.38.35-.55.57-2.88,3.67-7.07,5.75-11.17,7.89-1.1.58-2.2,1.16-3.3,1.74.29-.36.58-.72.89-1.07ZM24.01,32.88c1.6-.71,3.22-1.37,4.78-2.14,4.67-2.31,9.36-4.61,13.12-8.21.56-.54.97-1.24,1.51-1.98.75-.15,1.52-.25,2.29-.35-.17.17-.34.35-.49.6-.66,1.07-1.5,2.1-2.49,2.89-1.58,1.26-3.25,2.48-5.05,3.41-4.42,2.28-8.96,4.38-13.43,6.58-.47.23-.93.5-1.38.77.36-.56.71-1.11,1.11-1.64.01.02.03.05.04.07ZM26.92,70.61c.47-.07.94-.15,1.4-.29,9.2-2.71,18-6.36,26.79-10.08,8.43-3.57,17.12-6.6,25.69-9.88.33-.13.64-.29.95-.45,0,.03,0,.06,0,.09,0,1.94-.21,3.82-.58,5.66-17.6,5.1-35.09,10.5-52.28,16.76-.68-.58-1.34-1.18-1.97-1.81ZM77.54,64.92c-.51.09-1.01.17-1.52.27-2.07.43-4.13.98-6.22,1.28-9.15,1.31-18.33,2.5-26.88,6.11-2.66,1.12-5.23,2.49-8.05,3.88-.55-.28-1.07-.61-1.59-.92.45-.14.86-.37,1.27-.52,3.31-1.23,6.55-2.63,9.89-3.8,8.51-2.98,17.49-4.16,26.31-5.93,2.56-.52,5.09-1.21,7.63-1.85-.26.5-.54,1-.83,1.48ZM76.88,65.95c-.68,1.02-1.4,2.01-2.2,2.95-12.67.31-24.67,2.4-35.58,9.35-.44-.15-.9-.29-1.33-.46.21-.07.41-.12.64-.24,3.26-1.68,6.54-3.39,9.98-4.66,9.11-3.36,18.76-4.79,28.23-6.85.09-.02.17-.06.25-.08ZM78.69,62.81c-.55.17-1.09.37-1.65.49-2.9.61-5.77,1.46-8.7,1.74-12.45,1.18-24.16,4.83-35.66,9.28-.26.1-.51.24-.77.39-.91-.6-1.78-1.25-2.62-1.94.53-.12,1.06-.22,1.57-.38,8.68-2.7,17.36-5.43,26.05-8.12,7.73-2.39,15.49-4.71,23.22-7.09.27-.09.52-.23.77-.37-.51,2.1-1.26,4.11-2.21,6.01ZM70.35,73.08c-6.86-2.33-22.75,1.67-26.47,6.45-.73-.14-1.45-.32-2.16-.5.09-.05.17-.08.26-.14,5.65-3.96,11.94-6.26,18.97-6.78,3.96-.3,7.9-.78,11.84-1.19-.77.76-1.58,1.48-2.43,2.16Z" fill="#111"></path></svg>