<svg xmlns="http://www.w3.org/2000/svg" width="45.255" height="45.255" viewBox="0 0 45.255 45.255"><g id="button-x" transform="translate(0 22.627) rotate(-45)"><path id="&#x692D;&#x5706;_17" data-name="&#x692D;&#x5706; 17" d="M16,1A15,15,0,0,0,5.393,26.607,15,15,0,1,0,26.607,5.393,14.9,14.9,0,0,0,16,1m0-1A16,16,0,1,1,0,16,16,16,0,0,1,16,0Z" transform="translate(0 0)" fill="#005e3c"></path><g id="&#x7EC4;_25" data-name="&#x7EC4; 25" transform="translate(8.474 8.912)"><path id="&#x8DEF;&#x5F84;_38" data-name="&#x8DEF;&#x5F84; 38" d="M.354,14.53l-.707-.707L6.381,7.088-.354.354.354-.354,7.795,7.088Z" transform="translate(7.927 0)" fill="#005e3c"></path><path id="&#x76F4;&#x7EBF;_2" data-name="&#x76F4;&#x7EBF; 2" d="M15.053.5H0v-1H15.053Z" transform="translate(0 7.088)" fill="#005e3c"></path></g></g></svg>