<svg xmlns="http://www.w3.org/2000/svg" xmlns:xlink="http://www.w3.org/1999/xlink" width="65" height="65" viewBox="0 0 65 65"><defs><clipPath id="clip-path"><rect id="&#x77E9;&#x5F62;_187" data-name="&#x77E9;&#x5F62; 187" width="40" height="39.979" fill="#005e3c"></rect></clipPath></defs><g id="Info_Center" data-name="Info Center" transform="translate(-280 -8089)"><path id="&#x692D;&#x5706;_31" data-name="&#x692D;&#x5706; 31" d="M32.5,1A31.509,31.509,0,0,0,20.239,61.525,31.508,31.508,0,0,0,44.761,3.475,31.3,31.3,0,0,0,32.5,1m0-1A32.5,32.5,0,1,1,0,32.5,32.5,32.5,0,0,1,32.5,0Z" transform="translate(280 8089)" fill="#005e3c"></path><g id="&#x7EC4;_174" data-name="&#x7EC4; 174" transform="translate(293 8102)"><g id="&#x7EC4;_174-2" data-name="&#x7EC4; 174" transform="translate(0 0)" clip-path="url(#clip-path)"><path id="&#x8DEF;&#x5F84;_63" data-name="&#x8DEF;&#x5F84; 63" d="M32.4,4.292A20,20,0,0,0,2.594,29.839l-.846,6.95A1.3,1.3,0,0,0,3.2,38.24l6.949-.846A20,20,0,0,0,32.4,4.292M19.874,5.622a4.31,4.31,0,1,1-3.491,3.416,4.317,4.317,0,0,1,3.491-3.416m1.013,26.311h-7.47L16.3,17.192h8.616l1.557,7.964a5.7,5.7,0,0,1-5.589,6.777" transform="translate(0 0)" fill="#005e3c"></path></g></g></g></svg>