<svg xmlns="http://www.w3.org/2000/svg" xmlns:xlink="http://www.w3.org/1999/xlink" width="65" height="65" viewBox="0 0 65 65"><defs><clipPath id="clip-path"><rect id="&#x77E9;&#x5F62;_109" data-name="&#x77E9;&#x5F62; 109" width="33.334" height="30" fill="#005e3c"></rect></clipPath></defs><g id="Literature" transform="translate(-906.636 -7410)"><path id="&#x692D;&#x5706;_31" data-name="&#x692D;&#x5706; 31" d="M32.5,1A31.509,31.509,0,0,0,20.239,61.525,31.508,31.508,0,0,0,44.761,3.475,31.3,31.3,0,0,0,32.5,1m0-1A32.5,32.5,0,1,1,0,32.5,32.5,32.5,0,0,1,32.5,0Z" transform="translate(906.636 7410)" fill="#005e3c"></path><g id="&#x7EC4;_83" data-name="&#x7EC4; 83" transform="translate(922.636 7428)"><g id="&#x7EC4;_77" data-name="&#x7EC4; 77" clip-path="url(#clip-path)"><path id="&#x8DEF;&#x5F84;_43" data-name="&#x8DEF;&#x5F84; 43" d="M1.667,0A1.667,1.667,0,0,0,0,1.667v5H12.643l4.023-4.023L14.023,0ZM20.69,3.333,14.023,10H0V28.333A1.667,1.667,0,0,0,1.667,30h30a1.667,1.667,0,0,0,1.667-1.667V5a1.667,1.667,0,0,0-1.667-1.667Z" fill="#005e3c"></path></g></g></g></svg>