<svg xmlns="http://www.w3.org/2000/svg" xmlns:xlink="http://www.w3.org/1999/xlink" id="smile" width="20" height="20" viewBox="0 0 20 20"><defs><clipPath id="clip-path"><rect id="&#x77E9;&#x5F62;_256" data-name="&#x77E9;&#x5F62; 256" width="20" height="20" fill="#005e3c"></rect></clipPath></defs><g id="&#x7EC4;_264" data-name="&#x7EC4; 264" transform="translate(0 0)" clip-path="url(#clip-path)"><path id="&#x8DEF;&#x5F84;_519" data-name="&#x8DEF;&#x5F84; 519" d="M9.991,0A10,10,0,1,0,20,10.009,10,10,0,0,0,9.991,0m5.915,12.341a6.348,6.348,0,0,1-11.81,0,.954.954,0,0,1,1.782-.682,4.455,4.455,0,0,0,8.284-.019.959.959,0,0,1,1.232-.531.948.948,0,0,1,.512,1.232" transform="translate(0 0)" fill="#005e3c"></path></g></svg>