<svg xmlns="http://www.w3.org/2000/svg" xmlns:xlink="http://www.w3.org/1999/xlink" width="65" height="65" viewBox="0 0 65 65"><defs><clipPath id="clip-path"><rect id="&#x77E9;&#x5F62;_110" data-name="&#x77E9;&#x5F62; 110" width="35" height="30" fill="#005e3c"></rect></clipPath></defs><g id="Video" transform="translate(-906.636 -7410)"><path id="&#x692D;&#x5706;_31" data-name="&#x692D;&#x5706; 31" d="M32.5,1A31.509,31.509,0,0,0,20.239,61.525,31.508,31.508,0,0,0,44.761,3.475,31.3,31.3,0,0,0,32.5,1m0-1A32.5,32.5,0,1,1,0,32.5,32.5,32.5,0,0,1,32.5,0Z" transform="translate(906.636 7410)" fill="#005e3c"></path><g id="&#x7EC4;_82" data-name="&#x7EC4; 82" transform="translate(921.636 7428)"><g id="&#x7EC4;_79" data-name="&#x7EC4; 79" clip-path="url(#clip-path)"><path id="&#x8DEF;&#x5F84;_44" data-name="&#x8DEF;&#x5F84; 44" d="M23.528,30H4.2A4.234,4.234,0,0,1,0,25.744V4.257A4.235,4.235,0,0,1,4.2,0H23.528a4.191,4.191,0,0,1,4.187,4.128v.055c0,.025,0,.051,0,.077V9.283l4.458-2.34a1.856,1.856,0,0,1,1.889-.008A1.906,1.906,0,0,1,35,8.6V21.5a1.9,1.9,0,0,1-1.887,1.911,1.832,1.832,0,0,1-.937-.248l-4.459-2.34v4.919a.937.937,0,0,1,0,.127v.1A4.214,4.214,0,0,1,23.528,30M7.5,5A3.75,3.75,0,1,0,11.25,8.747,3.75,3.75,0,0,0,7.5,5" transform="translate(0 0)" fill="#005e3c"></path></g></g></g></svg>