<svg xmlns="http://www.w3.org/2000/svg" xmlns:xlink="http://www.w3.org/1999/xlink" width="65" height="65" viewBox="0 0 65 65"><defs><clipPath id="clip-path"><rect id="&#x77E9;&#x5F62;_111" data-name="&#x77E9;&#x5F62; 111" width="39.991" height="40" fill="#005e3c"></rect></clipPath></defs><g id="Visualizer" transform="translate(-906.636 -7410)"><path id="&#x692D;&#x5706;_31" data-name="&#x692D;&#x5706; 31" d="M32.5,1A31.509,31.509,0,0,0,20.239,61.525,31.508,31.508,0,0,0,44.761,3.475,31.3,31.3,0,0,0,32.5,1m0-1A32.5,32.5,0,1,1,0,32.5,32.5,32.5,0,0,1,32.5,0Z" transform="translate(906.636 7410)" fill="#005e3c"></path><g id="&#x7EC4;_81" data-name="&#x7EC4; 81" transform="translate(919.636 7423)"><g id="&#x7EC4;_81-2" data-name="&#x7EC4; 81" clip-path="url(#clip-path)"><path id="&#x8DEF;&#x5F84;_45" data-name="&#x8DEF;&#x5F84; 45" d="M28.21,36.714a4.96,4.96,0,0,0-.39-5.016c-2-3.493-3.626-6.953-2.016-8.562.626-.627,2.293-2.293,5.963,1.27,2.093,2.033,4.033,1.673,5,1.28a5.422,5.422,0,0,0,3.223-4.463,20.373,20.373,0,0,0-1.476-7.969,20.9,20.9,0,0,0-4.68-7.086A20.771,20.771,0,0,0,19.59,0,18.981,18.981,0,0,0,.006,19.589,21.045,21.045,0,0,0,22.267,39.951c2.027-.147,4.8-1.08,5.943-3.236M21.847,6.021a5.011,5.011,0,1,1-7.116-.03,5.038,5.038,0,0,1,7.116.03M6.205,22.076a5.011,5.011,0,1,1,7.116.03,5.038,5.038,0,0,1-7.116-.03M32.092,10.887a4,4,0,1,1-5.679-.027,4.022,4.022,0,0,1,5.679.027M12.868,33.025a5.011,5.011,0,1,1,7.116.03,5.038,5.038,0,0,1-7.116-.03" transform="translate(0 0.001)" fill="#005e3c"></path></g></g></g></svg>