<svg xmlns="http://www.w3.org/2000/svg" xmlns:xlink="http://www.w3.org/1999/xlink" width="65" height="65" viewBox="0 0 65 65"><defs><clipPath id="clip-path"><rect id="&#x77E9;&#x5F62;_186" data-name="&#x77E9;&#x5F62; 186" width="34.222" height="40" fill="#005e3c"></rect></clipPath></defs><g id="Where_To_Buy" data-name="Where To Buy" transform="translate(-280 -8089)"><path id="&#x692D;&#x5706;_31" data-name="&#x692D;&#x5706; 31" d="M32.5,1A31.509,31.509,0,0,0,20.239,61.525,31.508,31.508,0,0,0,44.761,3.475,31.3,31.3,0,0,0,32.5,1m0-1A32.5,32.5,0,1,1,0,32.5,32.5,32.5,0,0,1,32.5,0Z" transform="translate(280 8089)" fill="#005e3c"></path><g id="&#x7EC4;_173" data-name="&#x7EC4; 173" transform="translate(295.389 8101.5)"><g id="&#x7EC4;_172" data-name="&#x7EC4; 172" transform="translate(0 0)" clip-path="url(#clip-path)"><path id="&#x8DEF;&#x5F84;_62" data-name="&#x8DEF;&#x5F84; 62" d="M17.111,0A17.252,17.252,0,0,0,0,17.368c0,8.856,9.77,17.84,14.54,21.71a4.048,4.048,0,0,0,5.142,0c4.785-3.871,14.54-12.855,14.54-21.71A17.252,17.252,0,0,0,17.111,0M22.6,26.224H11.427a1.453,1.453,0,0,1-1.086-.486A1.84,1.84,0,0,1,9.9,24.553V20.925a.791.791,0,0,1,.186-.528.519.519,0,0,1,.4-.171.64.64,0,0,1,.6.7v3.7a.287.287,0,0,0,.286.286h11.3a.3.3,0,0,0,.286-.3V20.925a.595.595,0,1,1,1.171,0l.014,3.614A1.608,1.608,0,0,1,22.6,26.224M23.667,19a3.146,3.146,0,0,1-1.585.4h-.014a3.255,3.255,0,0,1-2.485-1.2,3.144,3.144,0,0,1-4.942,0,3.209,3.209,0,0,1-2.5,1.214,3.146,3.146,0,0,1-1.557-.386A3.462,3.462,0,0,1,9.07,17.211,3.634,3.634,0,0,1,9,14.783c0-.029.014-.071.014-.1l1.5-3.785a1.763,1.763,0,0,1,1.743-1.243H22.01a1.848,1.848,0,0,1,1.8,1.285l1.4,3.714a.417.417,0,0,1,.029.129A3.67,3.67,0,0,1,23.667,19" transform="translate(0 0)" fill="#005e3c"></path></g></g></g></svg>